<?xml version="1.0" encoding="utf-8"?>
<!-- Generator: Adobe Illustrator 21.0.0, SVG Export Plug-In . SVG Version: 6.00 Build 0)  -->
<svg version="1.1" id="Layer_1" xmlns="http://www.w3.org/2000/svg" xmlns:xlink="http://www.w3.org/1999/xlink" x="0px" y="0px"
	 viewBox="0 0 100 100" style="enable-background:new 0 0 100 100;" xml:space="preserve">
<style type="text/css">
	.st0{fill:#F40B0B;}
</style>
<g id="XMLID_486_">
	<g id="XMLID_488_">
		<g id="XMLID_494_">
			<path id="XMLID_527_" class="st0" d="M76.2,60.8c-1.8-1.9-4.1-2.9-6.4-2.9s-4.6,1-6.5,2.9l-6,6c-0.5-0.3-1-0.5-1.5-0.8
				c-0.7-0.3-1.3-0.7-1.9-1c-5.6-3.6-10.7-8.2-15.6-14.3c-2.4-3-4-5.5-5.1-8.1c1.6-1.4,3-2.9,4.4-4.3c0.5-0.5,1.1-1.1,1.6-1.6
				c4-4,4-9.2,0-13.2L34,18.3c-0.6-0.6-1.2-1.2-1.8-1.8c-1.1-1.2-2.3-2.4-3.6-3.5c-1.8-1.8-4-2.8-6.4-2.8s-4.6,1-6.5,2.8l0,0
				l-6.5,6.5c-2.4,2.4-3.8,5.4-4.1,8.8C4.6,33.9,6.3,39,7.5,42.4c3.1,8.3,7.7,16,14.5,24.3c8.3,9.9,18.3,17.8,29.8,23.3
				c4.4,2.1,10.2,4.5,16.7,4.9c0.4,0,0.8,0,1.2,0c4.4,0,8.1-1.6,11-4.7l0.1-0.1c1-1.2,2.1-2.3,3.3-3.4c0.8-0.8,1.7-1.6,2.5-2.5
				c1.9-2,2.9-4.2,2.9-6.6s-1-4.6-2.9-6.5L76.2,60.8z M83,80.8C82.9,80.8,82.9,80.8,83,80.8c-0.7,0.8-1.5,1.5-2.3,2.3
				c-1.2,1.2-2.5,2.4-3.7,3.8c-1.9,2.1-4.2,3-7.1,3c-0.3,0-0.6,0-0.9,0c-5.6-0.4-10.9-2.6-14.8-4.4c-10.8-5.2-20.2-12.6-28.1-22
				c-6.5-7.8-10.8-15-13.7-22.8c-1.8-4.7-2.4-8.4-2.1-11.9c0.2-2.2,1-4.1,2.6-5.6l6.5-6.5c0.9-0.9,1.9-1.3,2.9-1.3
				c1.2,0,2.2,0.7,2.8,1.3c0,0,0,0,0.1,0.1c1.2,1.1,2.3,2.2,3.4,3.4c0.6,0.6,1.2,1.2,1.8,1.8l5.2,5.2c2,2,2,3.9,0,5.9
				c-0.6,0.6-1.1,1.1-1.6,1.6c-1.6,1.6-3.1,3.2-4.8,4.6l-0.1,0.1c-1.6,1.6-1.3,3.2-1,4.3c0,0.1,0,0.1,0.1,0.2
				c1.3,3.3,3.3,6.4,6.1,10l0,0c5.2,6.5,10.8,11.5,16.9,15.4c0.8,0.5,1.6,0.9,2.3,1.3c0.7,0.3,1.3,0.7,1.9,1c0.1,0,0.2,0.1,0.2,0.1
				c0.6,0.3,1.3,0.5,1.9,0.5c1.6,0,2.6-1,2.9-1.3l6.5-6.5c0.6-0.6,1.7-1.4,2.9-1.4c1.2,0,2.1,0.7,2.7,1.4l0,0L83,74.9
				C84.9,76.8,84.9,78.8,83,80.8z"/>
			<path id="XMLID_526_" class="st0" d="M53.6,26.4c5,0.8,9.5,3.2,13.1,6.8s6,8.1,6.8,13.1c0.2,1.3,1.3,2.1,2.5,2.1
				c0.2,0,0.3,0,0.4,0c1.4-0.2,2.3-1.6,2.1-3c-1-6-3.9-11.5-8.2-15.9c-4.4-4.4-9.8-7.2-15.9-8.2c-1.4-0.2-2.7,0.7-3,2.1
				S52.2,26.2,53.6,26.4z"/>
			<path id="XMLID_515_" class="st0" d="M94.9,44.7c-1.7-9.9-6.4-19-13.6-26.1S65.2,6.7,55.2,5c-1.4-0.2-2.7,0.7-2.9,2.1
				s0.7,2.7,2.1,3c8.9,1.5,16.9,5.7,23.4,12.1c6.4,6.4,10.6,14.5,12.1,23.4c0.2,1.3,1.3,2.1,2.5,2.1c0.2,0,0.3,0,0.4,0
				C94.2,47.4,95.2,46.1,94.9,44.7z"/>
		</g>
	</g>
</g>
</svg>
