<?xml version="1.0" encoding="utf-8"?>
<!-- Generator: Adobe Illustrator 21.0.0, SVG Export Plug-In . SVG Version: 6.00 Build 0)  -->
<svg version="1.1" id="Layer_1" xmlns="http://www.w3.org/2000/svg" xmlns:xlink="http://www.w3.org/1999/xlink" x="0px" y="0px"
	 viewBox="0 0 100 100" style="enable-background:new 0 0 100 100;" xml:space="preserve">
<style type="text/css">
	.st0{fill:#FC0606;}
</style>
<path id="XMLID_59_" class="st0" d="M99.9,16.1c-0.1-0.2-0.2-0.4-0.3-0.6l-0.1-0.2L99.1,15H99l0,0l-0.2-0.1
	c-0.1-0.1-0.2-0.1-0.3-0.2c-0.1,0-0.2-0.1-0.5-0.1c-0.1,0-0.3-0.1-0.6-0.1H2.6c-0.2,0-0.4,0.1-0.6,0.1l0-0.1c-0.2,0-0.3,0-0.5,0.2
	l-0.4,0.2c0,0-0.1,0-0.1,0.1H0.8l-0.3,0.4c0,0.1,0,0.1,0,0.2c-0.1,0.1-0.2,0.2-0.3,0.5c-0.1,0.1-0.1,0.3-0.1,0.5
	C0.1,16.7,0,16.8,0,17v65.4c-0.2,0.9,0,1.7,0.5,2.3c0.5,0.6,1.2,0.9,1.9,0.9h94.8c0.4,0,0.7,0,1-0.2c0.1,0,0.2-0.1,0.2-0.1l0.2-0.1
	c0.2-0.1,0.3-0.2,0.5-0.4l0.2-0.2c0.1-0.1,0.1-0.2,0.2-0.3c0.1-0.1,0.2-0.2,0.2-0.5c0.1-0.1,0.1-0.3,0.1-0.4
	c0.1-0.1,0.1-0.3,0.1-0.5V17c0-0.2,0-0.3-0.1-0.4C99.9,16.4,99.9,16.2,99.9,16.1z M90.3,19.6L55.4,50.1c-1.5,1.3-3.4,2-5.4,2
	s-3.9-0.7-5.4-2L9.7,19.6H90.3z M5.3,22.8l31.3,27.3l-31.3,27C5.3,77.1,5.3,22.8,5.3,22.8z M9.7,80.3l30.9-26.7l0.6,0.5
	c2.5,2.1,5.6,3.3,8.9,3.3s6.4-1.2,8.9-3.3l0.6-0.5l30.9,26.7H9.7z M94.7,77.2L63.4,50.1l31.3-27.3V77.2z"/>
</svg>
