<?xml version="1.0" encoding="utf-8"?>
<!-- Generator: Adobe Illustrator 19.0.0, SVG Export Plug-In . SVG Version: 6.00 Build 0)  -->
<svg version="1.1" id="Layer_1" xmlns="http://www.w3.org/2000/svg" xmlns:xlink="http://www.w3.org/1999/xlink" x="0px" y="0px"
	 viewBox="-177 311 100 100" style="enable-background:new -177 311 100 100;" xml:space="preserve">
<g>
	<path d="M-160.7,343.7h-13.1c-1.8,0-3.3,1.5-3.3,3.3v58.8c0,1.8,1.5,3.3,3.3,3.3h13.1c1.8,0,3.3-1.5,3.3-3.3v-58.8
		C-157.4,345.1-158.9,343.7-160.7,343.7z"/>
	<path d="M-85.2,343.7c-0.5-0.1-25.1,0-25.1,0l3.4-9.4c2.4-6.5,0.8-16.4-5.7-19.9c-2.1-1.1-5.1-1.7-7.6-1.1
		c-1.4,0.3-2.6,1.3-3.3,2.5c-0.8,1.4-0.7,3.1-1,4.6c-0.8,4-2.6,7.8-5.5,10.6c-5.1,4.9-20.8,19.2-20.8,19.2v52.2h54.4
		c7.3,0,12.2-8.2,8.5-14.6c4.3-2.8,5.8-8.6,3.3-13.1c4.3-2.8,5.8-8.6,3.3-13.1C-74,356.9-76.4,345.1-85.2,343.7z"/>
</g>
</svg>
