<?xml version="1.0" encoding="utf-8"?>
<!-- Generator: Adobe Illustrator 19.0.0, SVG Export Plug-In . SVG Version: 6.00 Build 0)  -->
<svg version="1.1" id="Capa_1" xmlns="http://www.w3.org/2000/svg" xmlns:xlink="http://www.w3.org/1999/xlink" x="0px" y="0px"
	 viewBox="-177 311 100 100" style="enable-background:new -177 311 100 100;" xml:space="preserve">
<g>
	<g>
		<g>
			<path d="M-77.9,353.9l-36.9-31.6c-0.8-0.7-1.9-0.8-2.8-0.4c-0.9,0.4-1.5,1.4-1.5,2.4v18.5c-29.4,0.8-43.6,15.4-50.4,27.6
				c-5.9,10.7-7.2,21.2-7.5,25.6c-0.1,0.7-0.1,1.3-0.1,2l0,0l0,0l0,0l0,0l0,0l0,0l0,0l0,0l0,0l0,0l0,0l0,0l0,0l0,0l0,0l0,0l0,0l0,0
				l0,0l0,0l0,0l0,0l0,0l0,0l0,0l0,0l0,0l0,0l0,0l0,0l0,0l0,0v0l0,0l0,0l0,0v0l0,0l0,0l0,0l0,0l0,0l0,0l0,0l0,0l0,0l0,0l0,0l0,0l0,0
				l0,0l0,0l0,0l0,0l0,0l0,0l0,0l0,0l0,0l0,0c0.2,1.3,1.3,2.3,2.6,2.3c1.4,0,2.6-1.2,2.6-2.6l0,0c0-0.1,0-0.5,0-1
				c1.2-21.9,41.6-26.9,52.6-27.8v18.2c0,1,0.6,2,1.5,2.4c0.9,0.4,2,0.3,2.8-0.4l36.9-31.6c0.6-0.5,0.9-1.2,0.9-2
				C-77,355.1-77.3,354.4-77.9,353.9z"/>
		</g>
	</g>
</g>
</svg>
