<?xml version="1.0" encoding="utf-8"?>
<!-- Generator: Adobe Illustrator 21.0.0, SVG Export Plug-In . SVG Version: 6.00 Build 0)  -->
<svg version="1.1" id="Layer_1" xmlns="http://www.w3.org/2000/svg" xmlns:xlink="http://www.w3.org/1999/xlink" x="0px" y="0px"
	 viewBox="0 0 100 100" style="enable-background:new 0 0 100 100;" xml:space="preserve">
<style type="text/css">
	.st0{fill:#F90808;}
</style>
<g>
	<path class="st0" d="M16.3,32.7H3.2c-1.8,0-3.3,1.5-3.3,3.3v58.8c0,1.8,1.5,3.3,3.3,3.3h13.1c1.8,0,3.3-1.5,3.3-3.3V36
		C19.6,34.1,18.1,32.7,16.3,32.7z"/>
	<path class="st0" d="M91.8,32.7c-0.5-0.1-25.1,0-25.1,0l3.4-9.4c2.4-6.5,0.8-16.4-5.7-19.9c-2.1-1.1-5.1-1.7-7.6-1.1
		c-1.4,0.3-2.6,1.3-3.3,2.5c-0.8,1.4-0.7,3.1-1,4.6c-0.8,4-2.6,7.8-5.5,10.6c-5.1,4.9-20.8,19.2-20.8,19.2v52.2h54.4
		c7.3,0,12.2-8.2,8.5-14.6c4.3-2.8,5.8-8.6,3.3-13.1c4.3-2.8,5.8-8.6,3.3-13.1C103,45.9,100.6,34.1,91.8,32.7z"/>
</g>
</svg>
