<?xml version="1.0" encoding="utf-8"?>
<!-- Generator: Adobe Illustrator 21.0.0, SVG Export Plug-In . SVG Version: 6.00 Build 0)  -->
<svg version="1.1" id="Capa_1" xmlns="http://www.w3.org/2000/svg" xmlns:xlink="http://www.w3.org/1999/xlink" x="0px" y="0px"
	 viewBox="0 0 100 100" style="enable-background:new 0 0 100 100;" xml:space="preserve">
<style type="text/css">
	.st0{fill:#F90808;}
</style>
<g>
	<path class="st0" d="M0,59.1c0,2.3,0.8,4.3,2.5,5.9l32.4,32.5c1.7,1.6,3.7,2.5,6,2.5s4.3-0.8,5.9-2.5L94,50.2
		c1.7-1.6,3.1-3.9,4.3-6.7s1.8-5.4,1.8-7.7V8.3c0-2.3-0.8-4.3-2.5-5.9s-3.7-2.5-5.9-2.5H64.2c-2.3,0-4.9,0.6-7.7,1.8
		c-2.8,1.2-5.1,2.6-6.7,4.3L2.6,53.1C0.9,54.8,0,56.8,0,59.1z M70.5,21.1c0-2.3,0.8-4.3,2.5-6c1.6-1.6,3.7-2.5,6-2.5s4.3,0.8,6,2.5
		s2.5,3.6,2.5,6c0,2.3-0.8,4.3-2.5,6s-3.7,2.5-6,2.5s-4.3-0.8-6-2.5C71.3,25.4,70.5,23.4,70.5,21.1z"/>
</g>
</svg>
