<?xml version="1.0" encoding="utf-8"?>
<!-- Generator: Adobe Illustrator 21.0.0, SVG Export Plug-In . SVG Version: 6.00 Build 0)  -->
<svg version="1.1" id="Layer_1" xmlns="http://www.w3.org/2000/svg" xmlns:xlink="http://www.w3.org/1999/xlink" x="0px" y="0px"
	 viewBox="0 0 100 100" style="enable-background:new 0 0 100 100;" xml:space="preserve">
<style type="text/css">
	.st0{fill:#F90B0B;}
</style>
<g id="XMLID_861_">
	<g id="XMLID_867_">
		<g id="XMLID_873_">
			<path id="XMLID_911_" class="st0" d="M50,1.3c-18.9,0-34.2,15.4-34.2,34.2c0,6.4,1.8,12.6,5.1,18l27.2,43.8
				c0.5,0.8,1.4,1.3,2.4,1.3l0,0c1,0,1.9-0.5,2.4-1.4L79.4,53c3.2-5.3,4.8-11.3,4.8-17.5C84.2,16.7,68.9,1.3,50,1.3z M74.5,50.2
				L50.4,90.3L25.7,50.5c-2.8-4.5-4.3-9.7-4.3-15C21.4,19.8,34.3,7,50,7s28.5,12.8,28.5,28.6C78.5,40.7,77.1,45.8,74.5,50.2z"/>
		</g>
	</g>
	<g id="XMLID_862_">
		<g id="XMLID_863_">
			<path id="XMLID_864_" class="st0" d="M50,18.4c-9.4,0-17.1,7.7-17.1,17.1S40.5,52.6,50,52.6c9.7,0,17.1-7.8,17.1-17.1
				C67.1,26.1,59.4,18.4,50,18.4z M50,47c-6.3,0-11.4-5.1-11.4-11.4S43.8,24.2,50,24.2s11.4,5.2,11.4,11.4S56.4,47,50,47z"/>
		</g>
	</g>
</g>
</svg>
