<?xml version="1.0" encoding="utf-8"?>
<!-- Generator: Adobe Illustrator 19.0.0, SVG Export Plug-In . SVG Version: 6.00 Build 0)  -->
<svg version="1.1" id="Capa_1" xmlns="http://www.w3.org/2000/svg" xmlns:xlink="http://www.w3.org/1999/xlink" x="0px" y="0px"
	 viewBox="-256.8 310.8 100 100" style="enable-background:new -256.8 310.8 100 100;" xml:space="preserve">
<g>
	<path d="M-256.8,369.9c0,2.3,0.8,4.3,2.5,5.9l32.4,32.5c1.7,1.6,3.7,2.5,6,2.5c2.3,0,4.3-0.8,5.9-2.5l47.2-47.3
		c1.7-1.6,3.1-3.9,4.3-6.7s1.8-5.4,1.8-7.7v-27.5c0-2.3-0.8-4.3-2.5-5.9s-3.7-2.5-5.9-2.5h-27.5c-2.3,0-4.9,0.6-7.7,1.8
		c-2.8,1.2-5.1,2.6-6.7,4.3l-47.2,47.1C-255.9,365.6-256.8,367.6-256.8,369.9z M-186.3,331.9c0-2.3,0.8-4.3,2.5-6
		c1.6-1.6,3.7-2.5,6-2.5c2.3,0,4.3,0.8,6,2.5s2.5,3.6,2.5,6c0,2.3-0.8,4.3-2.5,6s-3.7,2.5-6,2.5c-2.3,0-4.3-0.8-6-2.5
		C-185.5,336.2-186.3,334.2-186.3,331.9z"/>
</g>
</svg>
